# xmcd CD database file
#
# Track frame offsets:
#	150
#	22562
#	41575
#	58135
#	70147
#	87867
#	105672
#	124455
#	143522
#	161295
#	176705
#	190325
#	205297
#	222940
#	244485
#	266547
#	283145
#	301665
#
# Disc length: 4301 seconds
#
# Revision: 0
# Processed by: cddbd v1.5.1PL2 Copyright (c) Steve Scherf et al.
# Submitted via: freeDB plugin v1.0
#
DISCID=0310cb12
DTITLE=心にのこる流行歌 - 心にのこる流行歌?
DYEAR=1900
DGENRE=Misc
TTITLE0=津軽海峡・冬景色
TTITLE1=天城越え
TTITLE2=能登半島
TTITLE3=命燃やして
TTITLE4=鴎という名の酒場
TTITLE5=みちのくひとり旅
TTITLE6=旅の終りはお前
TTITLE7=せんせい
TTITLE8=哀しみ本線日本海
TTITLE9=越冬つばめ
TTITLE10=立待岬
TTITLE11=時代おくれの酒場
TTITLE12=よせばいいのに
TTITLE13=星降る街角
TTITLE14=みずいろの事紙
TTITLE15=うすなさけ
TTITLE16=理由
TTITLE17=うそ
EXTD=
EXTT0=
EXTT1=
EXTT2=
EXTT3=
EXTT4=
EXTT5=
EXTT6=
EXTT7=
EXTT8=
EXTT9=
EXTT10=
EXTT11=
EXTT12=
EXTT13=
EXTT14=
EXTT15=
EXTT16=
EXTT17=
PLAYORDER=
